<svg width="140" height="140" viewBox="0 0 140 140" fill="none" xmlns="http://www.w3.org/2000/svg">
<g clip-path="url(#clip0_9612_51353)">
<path d="M70 140C108.66 140 140 108.66 140 70C140 31.3401 108.66 0 70 0C31.3401 0 0 31.3401 0 70C0 108.66 31.3401 140 70 140Z" fill="#21A58D"/>
<path d="M61.008 85.929C56.683 85.929 53.422 82.408 53.422 77.739C53.422 73.027 57.203 70.562 60.937 70.562C62.8181 70.5373 64.6499 71.1637 66.122 72.335C66.9129 72.9918 67.5458 73.8183 67.9738 74.7531C68.4017 75.6879 68.6137 76.7071 68.594 77.735C68.594 82.408 65.333 85.929 61.008 85.929ZM60.937 73.44C59.7582 73.4171 58.6075 73.8014 57.679 74.528C57.2198 74.9228 56.8568 75.4174 56.6178 75.9739C56.3788 76.5304 56.2701 77.1341 56.3 77.739C56.3 80.817 58.28 83.051 61.008 83.051C63.736 83.051 65.717 80.817 65.717 77.739C65.717 74.785 63.239 73.44 60.937 73.44V73.44Z" fill="white"/>
<path d="M54.64 103.345C54.2584 103.345 53.8924 103.193 53.6225 102.923C53.3527 102.654 53.201 102.288 53.201 101.906V94.472C53.201 94.0904 53.3526 93.7245 53.6224 93.4548C53.8921 93.185 54.258 93.0334 54.6395 93.0334C55.0211 93.0334 55.387 93.185 55.6567 93.4548C55.9265 93.7245 56.078 94.0904 56.078 94.472V101.906C56.078 102.287 55.9266 102.653 55.6569 102.923C55.3873 103.193 55.0215 103.345 54.64 103.345V103.345Z" fill="white"/>
<path d="M78.929 85.929C74.604 85.929 71.343 82.408 71.343 77.739C71.343 73.027 75.123 70.562 78.857 70.562C80.7381 70.5372 82.57 71.1636 84.042 72.335C84.8332 72.9916 85.4664 73.818 85.8945 74.7529C86.3226 75.6877 86.5347 76.707 86.515 77.735C86.515 82.408 83.254 85.929 78.929 85.929ZM78.857 73.44C77.6782 73.4173 76.5276 73.8015 75.599 74.528C75.1398 74.9228 74.7768 75.4174 74.5378 75.9739C74.2988 76.5304 74.1901 77.1341 74.22 77.739C74.22 80.817 76.2 83.051 78.929 83.051C81.658 83.051 83.638 80.817 83.638 77.739C83.638 74.785 81.161 73.44 78.861 73.44H78.857Z" fill="white"/>
<path d="M64.852 101.906V100.467H49.809V94.858C49.8103 93.5915 50.314 92.3772 51.2096 91.4816C52.1052 90.586 53.3195 90.0823 54.586 90.081H66.532C67.4269 88.9619 68.6171 88.1157 69.968 87.638C69.1527 87.3504 68.2945 87.2036 67.43 87.204H54.586C52.5567 87.2061 50.6111 88.0132 49.1761 89.4481C47.7412 90.8831 46.9341 92.8287 46.932 94.858V101.906C46.9319 102.095 46.969 102.282 47.0412 102.457C47.1134 102.631 47.2193 102.79 47.3528 102.923C47.4864 103.057 47.6449 103.163 47.8195 103.235C47.994 103.308 48.1811 103.345 48.37 103.345H66.291C65.9094 103.345 65.5433 103.193 65.2735 102.924C65.0036 102.654 64.852 102.288 64.852 101.906V101.906Z" fill="white"/>
<path d="M69.9681 90.817C69.2086 90.3372 68.3284 90.083 67.4301 90.084H66.5301C65.4415 91.438 64.8487 93.1236 64.8501 94.861V100.47H67.7281V94.861C67.7287 94.0524 67.9346 93.2573 68.3263 92.55C68.7181 91.8427 69.283 91.2464 69.9681 90.817V90.817Z" fill="white"/>
<path d="M85.351 87.204H72.506C71.6415 87.2037 70.7833 87.3505 69.968 87.638C71.3192 88.1157 72.5097 88.9619 73.405 90.081H85.351C86.6175 90.0823 87.8318 90.586 88.7274 91.4816C89.623 92.3772 90.1267 93.5915 90.128 94.858V100.467H75.084V101.906C75.0841 102.095 75.047 102.282 74.9748 102.457C74.9026 102.631 74.7967 102.79 74.6632 102.923C74.5296 103.057 74.3711 103.163 74.1965 103.235C74.022 103.308 73.8349 103.345 73.646 103.345H91.561C91.9427 103.345 92.3087 103.193 92.5785 102.924C92.8484 102.654 93 102.288 93 101.906V94.858C92.9976 92.8296 92.1912 90.8849 90.7574 89.4502C89.3235 88.0154 87.3794 87.2077 85.351 87.204V87.204Z" fill="white"/>
<path d="M75.084 101.906V100.467H64.8521V101.906C64.8521 102.288 65.0036 102.654 65.2735 102.924C65.5434 103.193 65.9094 103.345 66.291 103.345H73.646C73.835 103.345 74.022 103.308 74.1966 103.235C74.3711 103.163 74.5297 103.057 74.6632 102.924C74.7968 102.79 74.9027 102.631 74.9749 102.457C75.0471 102.282 75.0842 102.095 75.084 101.906V101.906Z" fill="white"/>
<path d="M66.532 90.0809H67.432C68.3303 90.08 69.2105 90.3342 69.97 90.8139C70.7295 90.3342 71.6096 90.08 72.508 90.0809H73.408C72.5127 88.9619 71.3222 88.1156 69.971 87.6379C68.619 88.1152 67.4277 88.9614 66.532 90.0809V90.0809Z" fill="white"/>
<path d="M85.2959 103.345C84.9144 103.345 84.5485 103.193 84.2787 102.923C84.0089 102.653 83.8572 102.288 83.8569 101.906V94.472C83.8569 94.0903 84.0085 93.7243 84.2784 93.4544C84.5483 93.1846 84.9143 93.033 85.2959 93.033C85.6776 93.033 86.0436 93.1846 86.3135 93.4544C86.5833 93.7243 86.7349 94.0903 86.7349 94.472V101.906C86.7349 102.288 86.5833 102.654 86.3135 102.923C86.0436 103.193 85.6776 103.345 85.2959 103.345V103.345Z" fill="white"/>
<path d="M72.5611 103.345C72.1796 103.345 71.8138 103.193 71.5442 102.923C71.2745 102.653 71.1231 102.288 71.1231 101.906V94.472C71.118 94.2799 71.1514 94.0888 71.2215 93.9098C71.2915 93.7309 71.3966 93.5677 71.5307 93.4301C71.6648 93.2924 71.8251 93.183 72.0021 93.1083C72.1792 93.0336 72.3694 92.9951 72.5616 92.9951C72.7537 92.9951 72.9439 93.0336 73.121 93.1083C73.298 93.183 73.4583 93.2924 73.5924 93.4301C73.7265 93.5677 73.8316 93.7309 73.9017 93.9098C73.9717 94.0888 74.0051 94.2799 74.0001 94.472V101.906C74.0001 102.288 73.8484 102.654 73.5786 102.924C73.3087 103.193 72.9427 103.345 72.5611 103.345V103.345Z" fill="white"/>
<path d="M84.543 69.259C84.3508 69.2592 84.1605 69.2208 83.9834 69.1461C83.8063 69.0713 83.646 68.9618 83.512 68.824L76.576 61.714H63.176L56.239 68.825C56.0395 69.0292 55.7837 69.1693 55.5042 69.2277C55.2247 69.2861 54.9342 69.26 54.6696 69.1528C54.405 69.0456 54.1783 68.8621 54.0183 68.6256C53.8583 68.3892 53.7722 68.1105 53.771 67.825L53.736 61.711H48.874C47.5829 61.7094 46.3451 61.1958 45.4322 60.2829C44.5192 59.3699 44.0056 58.1321 44.004 56.841V42.87C44.0056 41.5789 44.5192 40.3411 45.4322 39.4281C46.3451 38.5152 47.5829 38.0016 48.874 38H90.882C92.1732 38.0016 93.4109 38.5152 94.3239 39.4281C95.2368 40.3411 95.7504 41.5789 95.752 42.87V56.844C95.7504 58.1351 95.2368 59.3729 94.3239 60.2859C93.4109 61.1988 92.1732 61.7124 90.882 61.714H86.02L85.985 67.828C85.9827 68.208 85.8302 68.5717 85.5608 68.8397C85.2914 69.1078 84.927 69.2585 84.547 69.259H84.543ZM48.87 40.878C48.3417 40.8783 47.8351 41.0882 47.4614 41.4617C47.0877 41.8352 46.8776 42.3417 46.877 42.87V56.844C46.8789 57.372 47.0894 57.8779 47.4628 58.2512C47.8362 58.6246 48.342 58.8352 48.87 58.837H55.161C55.5411 58.837 55.9058 58.9874 56.1754 59.2553C56.445 59.5232 56.5977 59.8869 56.6 60.267L56.623 64.305L61.535 59.271C61.6688 59.1336 61.8288 59.0243 62.0056 58.9498C62.1823 58.8752 62.3722 58.8369 62.564 58.837H77.181C77.373 58.8369 77.5631 58.8752 77.74 58.9498C77.9169 59.0243 78.077 59.1335 78.211 59.271L83.122 64.305L83.145 60.267C83.1474 59.8869 83.3001 59.5232 83.5697 59.2553C83.8393 58.9874 84.2039 58.837 84.584 58.837H90.877C91.4049 58.8349 91.9105 58.6242 92.2836 58.2509C92.6568 57.8775 92.8672 57.3718 92.869 56.844V42.87C92.8685 42.3418 92.6585 41.8355 92.285 41.462C91.9115 41.0886 91.4052 40.8785 90.877 40.878H48.87Z" fill="white"/>
<path d="M75.861 53.3229H75.77C75.5814 53.3114 75.397 53.2627 75.2273 53.1798C75.0575 53.0968 74.9058 52.9812 74.7808 52.8396C74.6558 52.6979 74.5599 52.533 74.4987 52.3543C74.4375 52.1755 74.4121 51.9865 74.424 51.7979C74.4421 51.51 74.4755 51.2233 74.524 50.9389C74.5553 50.7523 74.6232 50.5736 74.7237 50.4132C74.8242 50.2528 74.9554 50.1138 75.1097 50.0041C75.264 49.8945 75.4384 49.8164 75.623 49.7742C75.8075 49.7321 75.9986 49.7268 76.1852 49.7587C76.3718 49.7905 76.5502 49.8588 76.7104 49.9598C76.8705 50.0607 77.0092 50.1922 77.1184 50.3468C77.2276 50.5014 77.3053 50.676 77.3469 50.8607C77.3886 51.0454 77.3934 51.2364 77.361 51.4229C77.3301 51.606 77.3087 51.7906 77.297 51.9759C77.2739 52.341 77.1125 52.6835 76.8457 52.9337C76.5789 53.184 76.2268 53.3232 75.861 53.3229V53.3229Z" fill="white"/>
<path d="M69.835 53.323C69.804 53.323 69.774 53.323 69.743 53.323C69.3623 53.2988 69.0067 53.1245 68.7544 52.8384C68.502 52.5523 68.3735 52.1777 68.397 51.797C68.4154 51.5088 68.4488 51.2217 68.497 50.937C68.5616 50.5608 68.773 50.2256 69.0847 50.0053C69.3964 49.7849 69.7828 49.6974 70.159 49.762C70.5352 49.8265 70.8704 50.0379 71.0907 50.3496C71.3111 50.6613 71.3986 51.0478 71.334 51.424C71.3029 51.607 71.2815 51.7916 71.27 51.977C71.2464 52.3416 71.085 52.6835 70.8185 52.9335C70.552 53.1835 70.2004 53.3227 69.835 53.323V53.323Z" fill="white"/>
<path d="M63.8032 53.323H63.7112C63.5226 53.3112 63.3383 53.2623 63.1686 53.1792C62.999 53.0961 62.8474 52.9804 62.7225 52.8387C62.5976 52.697 62.5018 52.5321 62.4407 52.3533C62.3795 52.1746 62.3542 51.9856 62.3662 51.797C62.3846 51.5088 62.4179 51.2218 62.4662 50.937C62.5368 50.5667 62.75 50.2388 63.0599 50.024C63.3698 49.8092 63.7516 49.7247 64.1232 49.7885C64.4948 49.8523 64.8265 50.0594 65.047 50.3653C65.2675 50.6711 65.3591 51.0513 65.3022 51.424C65.2713 51.6071 65.2503 51.7917 65.2392 51.977C65.2155 52.3418 65.054 52.6839 64.7873 52.9339C64.5206 53.1839 64.1687 53.323 63.8032 53.323V53.323Z" fill="white"/>
</g>
<defs>
<clipPath id="clip0_9612_51353">
<rect width="140" height="140" fill="white"/>
</clipPath>
</defs>
</svg>
